<?xml version="1.0" encoding="UTF-8" standalone="no"?>
<!DOCTYPE svg PUBLIC "-//W3C//DTD SVG 1.1//EN"
 "http://www.w3.org/Graphics/SVG/1.1/DTD/svg11.dtd">
<!-- Generated by graphviz version 12.1.1 (20240910.0053)
 -->
<!-- Title: INFRA Pages: 1 -->
<svg width="800pt" height="404pt"
 viewBox="0.00 0.00 507.52 404.00" xmlns="http://www.w3.org/2000/svg" xmlns:xlink="http://www.w3.org/1999/xlink">
<g id="graph0" class="graph" transform="scale(1 1) rotate(0) translate(4 400)">
<title>INFRA</title>
<polygon fill="white" stroke="none" points="-4,4 -4,-400 503.52,-400 503.52,4 -4,4"/>
<!-- ml&#45;service -->
<g id="node1" class="node">
<title>ml&#45;service</title>
<path fill="#b7e0ff" stroke="black" stroke-width="2" d="M230.52,-288C230.52,-288 82.89,-288 82.89,-288 76.89,-288 70.89,-282 70.89,-276 70.89,-276 70.89,-228 70.89,-228 70.89,-222 76.89,-216 82.89,-216 82.89,-216 230.52,-216 230.52,-216 236.52,-216 242.52,-222 242.52,-228 242.52,-228 242.52,-276 242.52,-276 242.52,-282 236.52,-288 230.52,-288"/>
<text text-anchor="middle" x="156.7" y="-256.2" font-family="Arial" font-size="14.00">ml&#45;service</text>
<text text-anchor="middle" x="156.7" y="-239.4" font-family="Arial" font-size="14.00">(KubernetesDeployment)</text>
</g>
<!-- model&#45;storage -->
<g id="node2" class="node">
<title>model&#45;storage</title>
<path fill="#fff5cd" stroke="black" stroke-width="2" d="M242.11,-173.45C242.11,-177.07 203.83,-180 156.7,-180 109.58,-180 71.29,-177.07 71.29,-173.45 71.29,-173.45 71.29,-114.55 71.29,-114.55 71.29,-110.93 109.58,-108 156.7,-108 203.83,-108 242.11,-110.93 242.11,-114.55 242.11,-114.55 242.11,-173.45 242.11,-173.45"/>
<path fill="none" stroke="black" stroke-width="2" d="M242.11,-173.45C242.11,-169.84 203.83,-166.91 156.7,-166.91 109.58,-166.91 71.29,-169.84 71.29,-173.45"/>
<text text-anchor="middle" x="156.7" y="-148.2" font-family="Arial" font-size="14.00">model&#45;storage</text>
<text text-anchor="middle" x="156.7" y="-131.4" font-family="Arial" font-size="14.00">(PersistentVolumeClaim)</text>
</g>
<!-- ml&#45;service&#45;&gt;model&#45;storage -->
<g id="edge1" class="edge">
<title>ml&#45;service&#45;&gt;model&#45;storage</title>
<path fill="none" stroke="black" d="M156.7,-215.7C156.7,-207.93 156.7,-199.57 156.7,-191.43"/>
<polygon fill="black" stroke="black" points="160.2,-191.66 156.7,-181.66 153.2,-191.66 160.2,-191.66"/>
</g>
<!-- model&#45;pv -->
<g id="node3" class="node">
<title>model&#45;pv</title>
<path fill="#fff5cd" stroke="black" stroke-width="2" d="M224.22,-65.45C224.22,-69.07 193.96,-72 156.7,-72 119.45,-72 89.18,-69.07 89.18,-65.45 89.18,-65.45 89.18,-6.55 89.18,-6.55 89.18,-2.93 119.45,0 156.7,0 193.96,0 224.22,-2.93 224.22,-6.55 224.22,-6.55 224.22,-65.45 224.22,-65.45"/>
<path fill="none" stroke="black" stroke-width="2" d="M224.22,-65.45C224.22,-61.84 193.96,-58.91 156.7,-58.91 119.45,-58.91 89.18,-61.84 89.18,-65.45"/>
<text text-anchor="middle" x="156.7" y="-40.2" font-family="Arial" font-size="14.00">model&#45;pv</text>
<text text-anchor="middle" x="156.7" y="-23.4" font-family="Arial" font-size="14.00">(PersistentVolume)</text>
</g>
<!-- model&#45;storage&#45;&gt;model&#45;pv -->
<g id="edge2" class="edge">
<title>model&#45;storage&#45;&gt;model&#45;pv</title>
<path fill="none" stroke="black" d="M156.7,-107.7C156.7,-99.93 156.7,-91.57 156.7,-83.43"/>
<polygon fill="black" stroke="black" points="160.2,-83.66 156.7,-73.66 153.2,-83.66 160.2,-83.66"/>
</g>
<!-- ml&#45;service&#45;hpa -->
<g id="node4" class="node">
<title>ml&#45;service&#45;hpa</title>
<path fill="#e6e6e6" stroke="black" stroke-width="2" d="M167.41,-396C167.41,-396 12,-396 12,-396 6,-396 0,-390 0,-384 0,-384 0,-336 0,-336 0,-330 6,-324 12,-324 12,-324 167.41,-324 167.41,-324 173.41,-324 179.41,-330 179.41,-336 179.41,-336 179.41,-384 179.41,-384 179.41,-390 173.41,-396 167.41,-396"/>
<text text-anchor="middle" x="89.7" y="-364.2" font-family="Arial" font-size="14.00">ml&#45;service&#45;hpa</text>
<text text-anchor="middle" x="89.7" y="-347.4" font-family="Arial" font-size="14.00">(HorizontalPodAutoscaler)</text>
</g>
<!-- ml&#45;service&#45;hpa&#45;&gt;ml&#45;service -->
<g id="edge3" class="edge">
<title>ml&#45;service&#45;hpa&#45;&gt;ml&#45;service</title>
<path fill="none" stroke="black" d="M112.01,-323.7C117.27,-315.39 122.94,-306.42 128.42,-297.75"/>
<polygon fill="black" stroke="black" points="131.3,-299.74 133.68,-289.42 125.38,-296 131.3,-299.74"/>
</g>
<!-- ml&#45;service&#45;lb -->
<g id="node5" class="node">
<title>ml&#45;service&#45;lb</title>
<path fill="#e78f81" stroke="black" stroke-width="2" d="M297.56,-396C297.56,-396 209.84,-396 209.84,-396 203.84,-396 197.84,-390 197.84,-384 197.84,-384 197.84,-336 197.84,-336 197.84,-330 203.84,-324 209.84,-324 209.84,-324 297.56,-324 297.56,-324 303.56,-324 309.56,-330 309.56,-336 309.56,-336 309.56,-384 309.56,-384 309.56,-390 303.56,-396 297.56,-396"/>
<text text-anchor="middle" x="253.7" y="-364.2" font-family="Arial" font-size="14.00">ml&#45;service&#45;lb</text>
<text text-anchor="middle" x="253.7" y="-347.4" font-family="Arial" font-size="14.00">(LoadBalancer)</text>
</g>
<!-- ml&#45;service&#45;lb&#45;&gt;ml&#45;service -->
<g id="edge4" class="edge">
<title>ml&#45;service&#45;lb&#45;&gt;ml&#45;service</title>
<path fill="none" stroke="black" d="M221.4,-323.7C213.47,-315.03 204.88,-305.65 196.63,-296.63"/>
<polygon fill="black" stroke="black" points="199.22,-294.27 189.88,-289.26 194.05,-299 199.22,-294.27"/>
</g>
<!-- prometheus -->
<g id="node6" class="node">
<title>prometheus</title>
<path fill="#e6e6e6" stroke="black" stroke-width="2" d="M487.52,-288C487.52,-288 339.89,-288 339.89,-288 333.89,-288 327.89,-282 327.89,-276 327.89,-276 327.89,-228 327.89,-228 327.89,-222 333.89,-216 339.89,-216 339.89,-216 487.52,-216 487.52,-216 493.52,-216 499.52,-222 499.52,-228 499.52,-228 499.52,-276 499.52,-276 499.52,-282 493.52,-288 487.52,-288"/>
<text text-anchor="middle" x="413.7" y="-256.2" font-family="Arial" font-size="14.00">prometheus</text>
<text text-anchor="middle" x="413.7" y="-239.4" font-family="Arial" font-size="14.00">(KubernetesDeployment)</text>
</g>
<!-- prometheus&#45;config -->
<g id="node8" class="node">
<title>prometheus&#45;config</title>
<path fill="#e6e6e6" stroke="black" stroke-width="2" d="M467.68,-180C467.68,-180 359.73,-180 359.73,-180 353.73,-180 347.73,-174 347.73,-168 347.73,-168 347.73,-120 347.73,-120 347.73,-114 353.73,-108 359.73,-108 359.73,-108 467.68,-108 467.68,-108 473.68,-108 479.68,-114 479.68,-120 479.68,-120 479.68,-168 479.68,-168 479.68,-174 473.68,-180 467.68,-180"/>
<text text-anchor="middle" x="413.7" y="-148.2" font-family="Arial" font-size="14.00">prometheus&#45;config</text>
<text text-anchor="middle" x="413.7" y="-131.4" font-family="Arial" font-size="14.00">(ConfigMap)</text>
</g>
<!-- prometheus&#45;&gt;prometheus&#45;config -->
<g id="edge5" class="edge">
<title>prometheus&#45;&gt;prometheus&#45;config</title>
<path fill="none" stroke="black" d="M413.7,-215.7C413.7,-207.93 413.7,-199.57 413.7,-191.43"/>
<polygon fill="black" stroke="black" points="417.2,-191.66 413.7,-181.66 410.2,-191.66 417.2,-191.66"/>
</g>
<!-- prometheus&#45;lb -->
<g id="node7" class="node">
<title>prometheus&#45;lb</title>
<path fill="#e78f81" stroke="black" stroke-width="2" d="M457.56,-396C457.56,-396 369.84,-396 369.84,-396 363.84,-396 357.84,-390 357.84,-384 357.84,-384 357.84,-336 357.84,-336 357.84,-330 363.84,-324 369.84,-324 369.84,-324 457.56,-324 457.56,-324 463.56,-324 469.56,-330 469.56,-336 469.56,-336 469.56,-384 469.56,-384 469.56,-390 463.56,-396 457.56,-396"/>
<text text-anchor="middle" x="413.7" y="-364.2" font-family="Arial" font-size="14.00">prometheus&#45;lb</text>
<text text-anchor="middle" x="413.7" y="-347.4" font-family="Arial" font-size="14.00">(LoadBalancer)</text>
</g>
<!-- prometheus&#45;lb&#45;&gt;prometheus -->
<g id="edge6" class="edge">
<title>prometheus&#45;lb&#45;&gt;prometheus</title>
<path fill="none" stroke="black" d="M413.7,-323.7C413.7,-315.93 413.7,-307.57 413.7,-299.43"/>
<polygon fill="black" stroke="black" points="417.2,-299.66 413.7,-289.66 410.2,-299.66 417.2,-299.66"/>
</g>
</g>
</svg>
